<!-- sample rectangle -->
<svg xmlns="http://www.w3.org/2000/svg" width="512" height="512" viewBox="0 0 512 512" style="overflow: visible;" data-svgdocument="" id="_tkDIgv_Y5W8Np-Opu2I4D" class="fl-svgdocument" x="0" y="0" overflow="hidden" data-bbox="27.557750579740606 216.51787334735866 456.8845011617108 78.96424031710768"><g id="_-el4sL98Eig0zoaqK8jXT" transform="matrix(0.4580411911010742, 0, 0, 0.4580411911010742, -9.884415626525879, 184.45767211914062)" data-uid="o_f4fa05i7m_4"><path id="_iH60FruWDrLtGLPJfS8G5" stroke="none" fill="#e8a348" transform="matrix(3.9435577392578125, 0, 0, 3.9435577392578125, 64.17167663574219, -40.98545837402344)" stroke-width="1" data-type="polygon" d="M70.717 48.864L37.186 63.459L51.035 62.554L75.11 55.306L94.654 28.642Z" data-uid="o_f4fa05i7m_5"></path><path id="_wepZ5HEs3roYXHRmBK6ik" stroke="none" fill="#e8a348" transform="matrix(3.9435577392578125, 0, 0, 3.9435577392578125, 61.88771438598633, -41.80644989013672)" stroke-width="1" data-type="polygon" d="M53.304 55.337L22.236 59.124L20.418 60.386L16.535 61.647L17.312 63.653L17.836 62.748L19.972 62.748L35.044 63.378Z" data-uid="o_f4fa05i7m_6"></path><path id="_QZcXAmZWV-81pZMjzGHNF" stroke="none" fill="#e8a348" transform="matrix(3.9435577392578125, 0, 0, 3.9435577392578125, 62.63362121582031, -41.89234924316406)" stroke-width="1" data-type="polygon" d="M40.313 55.834L24.544 57.789L10.079 46.989L5.346 31.359L15.474 44.563Z" data-uid="o_f4fa05i7m_7"></path><path id="_nExDW2cEedqur9tHQzeYP" stroke="none" fill="#3a4a54" transform="matrix(3.9435577392578125, 0, 0, 3.9435577392578125, 64.5907974243164, -40.986534118652344)" stroke-width="1" data-type="polygon" d="M51.386 63.629L36.889 64.438L34.883 64.414L24.593 63.841L39.177 67.423L48.586 66.72L46.451 68.637L49.94 71.023L50.633 66.574L51.918 71.358L55.798 71.05L52.211 66.282L58.232 70.481L62.221 69.394L54.006 65.7L63.975 68.763L68.519 66.355Z" data-uid="o_f4fa05i7m_8"></path><path id="_gkufdMcBDjLu3YgpsHW0Q" stroke="none" fill="#e8a348" transform="matrix(1.9376378059387207, 0.37665632367134094, -0.37665632367134094, 1.9376378059387207, 227.96426391601562, 70.76435852050781)" stroke-width="1" data-type="polygon" d="M70.717 48.864L37.186 63.459L51.035 62.554L75.11 55.306L94.654 28.642Z" data-uid="o_f4fa05i7m_9"></path></g><path text="Turdo" text-anchor="middle" font-size="100" letter-spacing="0" side="left" offset="0.5" dx="0" dy="0" space="preserve" href="" font-family="Bungee" font-scale="contain" transform="matrix(0.7636006474494934, 0, 0, 0.7636006474494934, 350.3539733886719, 283.4896240234375)" x="0" y="0" fill="#3a4a54" data-fl-textpath="" id="_tz4JJIEWj8HCcglh_WRDx" font-style="normal" font-weight="400" data-uid="o_f4fa05i7m_10" d="M-140.5 0L-140.5 0L-156.70000000000002 0Q-158.6 0 -159.45000000000002-0.85Q-160.3-1.7 -160.3-3.6L-160.3-3.6L-160.3-52.7L-175-52.7Q-176.9-52.7 -177.75-53.55Q-178.6-54.4 -178.6-56.3L-178.6-56.3L-178.6-68.4Q-178.6-70.3 -177.75-71.15Q-176.9-72 -175-72L-175-72L-122.2-72Q-120.30000000000001-72 -119.45-71.15Q-118.60000000000001-70.3 -118.60000000000001-68.4L-118.60000000000001-68.4L-118.60000000000001-56.3Q-118.60000000000001-54.4 -119.45-53.55Q-120.30000000000001-52.7 -122.2-52.7L-122.2-52.7L-136.9-52.7L-136.9-3.6Q-136.9-1.7 -137.75-0.85Q-138.60000000000002 0 -140.5 0ZM-47.60000000000001-68.4L-47.60000000000001-18.9Q-47.60000000000001-14.3 -48.95000000000002-10.55Q-50.30000000000001-6.8 -53.750000000000014-4.15Q-57.20000000000001-1.5 -63.20000000000001 0Q-69.20000000000002 1.5 -78.50000000000001 1.5L-78.50000000000001 1.5Q-87.80000000000001 1.5 -93.80000000000001 0Q-99.80000000000001-1.5 -103.25000000000001-4.15Q-106.70000000000002-6.8 -108.05000000000001-10.55Q-109.4-14.3 -109.4-18.9L-109.4-18.9L-109.4-68.4Q-109.4-70.3 -108.55000000000001-71.15Q-107.70000000000002-72 -105.80000000000001-72L-105.80000000000001-72L-90.10000000000001-72Q-88.20000000000002-72 -87.35000000000001-71.15Q-86.50000000000001-70.3 -86.50000000000001-68.4L-86.50000000000001-68.4L-86.50000000000001-22.8Q-86.50000000000001-20.8 -85.00000000000001-19.45Q-83.50000000000001-18.1 -78.30000000000001-18.1L-78.30000000000001-18.1Q-73.00000000000001-18.1 -71.50000000000001-19.45Q-70.00000000000001-20.8 -70.00000000000001-22.8L-70.00000000000001-22.8L-70.00000000000001-68.4Q-70.00000000000001-70.3 -69.15-71.15Q-68.30000000000001-72 -66.4-72L-66.4-72L-51.20000000000002-72Q-49.30000000000001-72 -48.45000000000002-71.15Q-47.60000000000001-70.3 -47.60000000000001-68.4L-47.60000000000001-68.4ZM-4.199999999999989-54L-11.699999999999989-54L-11.699999999999989-41.2L-4.199999999999989-41.2Q-1.5999999999999872-41.2 -0.6999999999999886-42.55Q 0.20000000000000995-43.9  0.20000000000000995-45.9L 0.20000000000000995-45.9L 0.20000000000000995-49.3Q 0.20000000000000995-51.3 -0.6999999999999886-52.65Q-1.5999999999999872-54 -4.199999999999989-54L-4.199999999999989-54ZM-15.29999999999999 0L-15.29999999999999 0L-30.69999999999999 0Q-32.59999999999999 0 -33.44999999999999-0.85Q-34.29999999999999-1.7 -34.29999999999999-3.6L-34.29999999999999-3.6L-34.29999999999999-68.4Q-34.29999999999999-70.3 -33.44999999999999-71.15Q-32.59999999999999-72 -30.69999999999999-72L-30.69999999999999-72L 2.6000000000000085-72Q 13.800000000000011-72  18.05000000000001-67.35Q 22.30000000000001-62.7  22.30000000000001-55.3L 22.30000000000001-55.3L 22.30000000000001-50.7Q 22.30000000000001-46.5  21.05000000000001-43.55Q 19.80000000000001-40.6  16.70000000000001-39.3L 16.70000000000001-39.3Q 22.10000000000001-38.7  25.450000000000017-34.9Q 28.80000000000001-31.1  28.80000000000001-24.8L 28.80000000000001-24.8L 28.80000000000001-3.6Q 28.80000000000001-1.7  27.950000000000017-0.85Q 27.10000000000001 0  25.200000000000017 0L 25.200000000000017 0L 9.70000000000001 0Q 7.800000000000011 0  6.95000000000001-0.85Q 6.1000000000000085-1.7  6.1000000000000085-3.6L 6.1000000000000085-3.6L 6.1000000000000085-18.9Q 6.1000000000000085-21.1  5.250000000000014-22.15Q 4.400000000000013-23.2  2.3000000000000114-23.2L 2.3000000000000114-23.2L-11.699999999999989-23.2L-11.699999999999989-3.6Q-11.699999999999989-1.7 -12.54999999999999-0.85Q-13.399999999999988 0 -15.29999999999999 0ZM 77.30000000000001 0L 77.30000000000001 0L 43.6 0Q 41.7 0  40.85-0.85Q 40-1.7  40-3.6L 40-3.6L 40-68.4Q 40-70.3  40.85-71.15Q 41.7-72  43.6-72L 43.6-72L 77.30000000000001-72Q 89.80000000000001-72  95.85-67Q 101.9-62  101.9-51.6L 101.9-51.6L 101.9-20.4Q 101.9-10  95.85-5Q 89.80000000000001 0  77.30000000000001 0ZM 74.6-52.9L 62.7-52.9L 62.7-18.9L 74.6-18.9Q 77-18.9  78.15-20.1Q 79.30000000000001-21.3  79.30000000000001-23.8L 79.30000000000001-23.8L 79.30000000000001-48.1Q 79.30000000000001-50.6  78.15-51.75Q 77-52.9  74.6-52.9L 74.6-52.9ZM 175.60000000000002-53L 175.60000000000002-18.9Q 175.60000000000002-14.3  174.25-10.55Q 172.90000000000003-6.8  169.45000000000002-4.15Q 166-1.5  159.95000000000002 0Q 153.90000000000003 1.5  144.60000000000002 1.5L 144.60000000000002 1.5Q 135.3 1.5  129.20000000000002 0Q 123.10000000000002-1.5  119.65000000000002-4.15Q 116.20000000000002-6.8  114.85000000000002-10.55Q 113.50000000000001-14.3  113.50000000000001-18.9L 113.50000000000001-18.9L 113.50000000000001-53Q 113.50000000000001-57.6  114.85000000000002-61.35Q 116.20000000000002-65.1  119.65000000000002-67.8Q 123.10000000000002-70.5  129.20000000000002-72Q 135.3-73.5  144.60000000000002-73.5L 144.60000000000002-73.5Q 153.90000000000003-73.5  159.95000000000002-72Q 166-70.5  169.45000000000002-67.8Q 172.90000000000003-65.1  174.25-61.35Q 175.60000000000002-57.6  175.60000000000002-53L 175.60000000000002-53ZM 136.20000000000002-49.4L 136.20000000000002-22.5Q 136.20000000000002-20.5  137.70000000000002-19.15Q 139.20000000000002-17.8  144.60000000000002-17.8L 144.60000000000002-17.8Q 150-17.8  151.5-19.15Q 153-20.5  153-22.5L 153-22.5L 153-49.4Q 153-51.3  151.5-52.65Q 150-54  144.60000000000002-54L 144.60000000000002-54Q 139.20000000000002-54  137.70000000000002-52.65Q 136.20000000000002-51.3  136.20000000000002-49.4L 136.20000000000002-49.4Z"></path></svg>