<svg xmlns="http://www.w3.org/2000/svg" width="512" height="512" viewBox="0 0 512 512" style="overflow: visible;" data-svgdocument="" id="_EhxCjg0eFd-gWAOw8alkU" class="fl-svgdocument" x="0" y="0" overflow="hidden"><defs id="_NVSUhYTtPwk97Q54rUMxx" transform="matrix(1.1951687708497047, 0, 0, 1.1951687708497047, -12.51139497756958, 141.26140213012695)" data-uid="o_f4fa902k4_5"><linearGradient id="o_f4fa902k4_3" x1="0" y1="0.5" x2="1" y2="0.5" data-uid="o_f4fa902k4_6"><stop id="_3m4cezOni4tb2P8V2Ksai" offset="0%" stop-color="rgb(67, 207, 217)" data-uid="o_f4fa902k4_7"></stop><stop id="_j0VHyOT3q9pLPviRbj7a9" offset="100%" stop-color="rgb(116, 209, 76)" data-uid="o_f4fa902k4_8"></stop></linearGradient></defs><path id="_pWCOG6xWHbr3Mm2K8-BV5" d="M84.9793092 79.8511531 C84.9793092 85.7394528 80.1897565 90.5290056 74.3014568 90.5290056 L31.4559172 90.5290056 L27.428669 86.5956482 L27.8925347 86.5956482 L69.0256834 86.5956482 C75.6528149 86.5956482 81.0448341 81.2025112 81.0448341 74.5753797 L81.0448341 24.9540481 L82.3917212 24.9540481 C83.8179684 24.9540481 84.9793092 26.1153889 84.9793092 27.5427539 L84.9793092 79.8511531 Z M18.3369018 78.39808 L65.7898012 78.39808 C69.6818018 78.39808 72.8483836 75.2314982 72.8483836 71.3394975 L72.8483836 17.667445 L73.9873694 17.667445 C75.4136167 17.667445 76.5738397 18.8287858 76.5738397 20.255033 L76.5738397 74.5753797 C76.5738397 78.7378755 73.1870614 82.1246538 69.0256834 82.1246538 L23.0526832 82.1246538 L18.3369018 78.39808 Z M15.4709944 9.47099442 L65.7898012 9.47099442 C67.2160484 9.47099442 68.3773892 10.6312175 68.3773892 12.0585824 L68.3773892 71.3394975 C68.3773892 72.7668625 67.2160484 73.9270855 65.7898012 73.9270855 L15.4709944 73.9270855 L15.4709944 9.47099442 Z M82.3917212 20.4830537 L81.0448341 20.4830537 L81.0448341 20.255033 C81.0448341 16.3630323 77.8782523 13.1964505 73.9873694 13.1964505 L72.8483836 13.1964505 L72.8483836 12.0585824 C72.8483836 8.1665818 69.6818018 5 65.7898012 5 L11 5 L11 78.39808 L29.9044822 95 L74.3014568 95 C82.6543921 95 89.4503037 88.2040885 89.4503037 79.8511531 L89.4503037 27.5427539 C89.4503037 23.6496355 86.2837219 20.4830537 82.3917212 20.4830537 L82.3917212 20.4830537 Z" fill="url(#o_f4fa902k4_3)" fill-rule="evenodd" transform="matrix(1.1836543455719948, 0, 0, 1.1836543455719948, 17.2056544162333, 196.81728272140026)" data-uid="o_f4fa902k4_9"></path><path text="turdoteca" text-anchor="start" font-size="100" letter-spacing="0" side="left" offset="0" dx="0" dy="0" space="preserve" href="" font-family="Bungee" font-scale="contain" transform="matrix(0.5475824512541294, 0, 0, 0.5475824512541294, 147.52075081829986, 275.71296824514866)" x="0" y="0" fill="#3a3a3a" data-fl-textpath="" id="_z5CNUfQuDwRMN9gngi9lT" data-uid="o_f4fa902k4_10" d="M 40.9 0L 40.9 0L 24.7 0Q 22.8 0  21.95-0.85Q 21.1-1.7  21.1-3.6L 21.1-3.6L 21.1-52.7L 6.4-52.7Q 4.5-52.7  3.65-53.55Q 2.8-54.4  2.8-56.3L 2.8-56.3L 2.8-68.4Q 2.8-70.3  3.65-71.15Q 4.5-72  6.4-72L 6.4-72L 59.2-72Q 61.1-72  61.95-71.15Q 62.8-70.3  62.8-68.4L 62.8-68.4L 62.8-56.3Q 62.8-54.4  61.95-53.55Q 61.1-52.7  59.2-52.7L 59.2-52.7L 44.5-52.7L 44.5-3.6Q 44.5-1.7  43.65-0.85Q 42.8 0  40.9 0ZM 133.8-68.4L 133.8-18.9Q 133.8-14.3  132.45-10.55Q 131.1-6.8  127.64999999999999-4.15Q 124.19999999999999-1.5  118.19999999999999 0Q 112.19999999999999 1.5  102.89999999999999 1.5L 102.89999999999999 1.5Q 93.6 1.5  87.6 0Q 81.6-1.5  78.14999999999999-4.15Q 74.69999999999999-6.8  73.35-10.55Q 72-14.3  72-18.9L 72-18.9L 72-68.4Q 72-70.3  72.85-71.15Q 73.69999999999999-72  75.6-72L 75.6-72L 91.3-72Q 93.19999999999999-72  94.05-71.15Q 94.89999999999999-70.3  94.89999999999999-68.4L 94.89999999999999-68.4L 94.89999999999999-22.8Q 94.89999999999999-20.8  96.39999999999999-19.45Q 97.89999999999999-18.1  103.1-18.1L 103.1-18.1Q 108.39999999999999-18.1  109.89999999999999-19.45Q 111.39999999999999-20.8  111.39999999999999-22.8L 111.39999999999999-22.8L 111.39999999999999-68.4Q 111.39999999999999-70.3  112.25-71.15Q 113.1-72  115-72L 115-72L 130.2-72Q 132.1-72  132.95-71.15Q 133.8-70.3  133.8-68.4L 133.8-68.4ZM 177.20000000000002-54L 169.70000000000002-54L 169.70000000000002-41.2L 177.20000000000002-41.2Q 179.8-41.2  180.70000000000002-42.55Q 181.60000000000002-43.9  181.60000000000002-45.9L 181.60000000000002-45.9L 181.60000000000002-49.3Q 181.60000000000002-51.3  180.70000000000002-52.65Q 179.8-54  177.20000000000002-54L 177.20000000000002-54ZM 166.10000000000002 0L 166.10000000000002 0L 150.70000000000002 0Q 148.8 0  147.95000000000002-0.85Q 147.10000000000002-1.7  147.10000000000002-3.6L 147.10000000000002-3.6L 147.10000000000002-68.4Q 147.10000000000002-70.3  147.95000000000002-71.15Q 148.8-72  150.70000000000002-72L 150.70000000000002-72L 184-72Q 195.20000000000002-72  199.45000000000002-67.35Q 203.70000000000002-62.7  203.70000000000002-55.3L 203.70000000000002-55.3L 203.70000000000002-50.7Q 203.70000000000002-46.5  202.45000000000002-43.55Q 201.20000000000002-40.6  198.10000000000002-39.3L 198.10000000000002-39.3Q 203.5-38.7  206.85000000000002-34.9Q 210.20000000000002-31.1  210.20000000000002-24.8L 210.20000000000002-24.8L 210.20000000000002-3.6Q 210.20000000000002-1.7  209.35000000000002-0.85Q 208.5 0  206.60000000000002 0L 206.60000000000002 0L 191.10000000000002 0Q 189.20000000000002 0  188.35000000000002-0.85Q 187.5-1.7  187.5-3.6L 187.5-3.6L 187.5-18.9Q 187.5-21.1  186.65000000000003-22.15Q 185.8-23.2  183.70000000000002-23.2L 183.70000000000002-23.2L 169.70000000000002-23.2L 169.70000000000002-3.6Q 169.70000000000002-1.7  168.85000000000002-0.85Q 168.00000000000003 0  166.10000000000002 0ZM 258.7 0L 258.7 0L 225 0Q 223.1 0  222.25-0.85Q 221.4-1.7  221.4-3.6L 221.4-3.6L 221.4-68.4Q 221.4-70.3  222.25-71.15Q 223.1-72  225-72L 225-72L 258.7-72Q 271.2-72  277.25-67Q 283.3-62  283.3-51.6L 283.3-51.6L 283.3-20.4Q 283.3-10  277.25-5Q 271.2 0  258.7 0ZM 256-52.9L 244.1-52.9L 244.1-18.9L 256-18.9Q 258.4-18.9  259.55-20.1Q 260.7-21.3  260.7-23.8L 260.7-23.8L 260.7-48.1Q 260.7-50.6  259.55-51.75Q 258.4-52.9  256-52.9L 256-52.9ZM 357-53L 357-18.9Q 357-14.3  355.65000000000003-10.55Q 354.3-6.8  350.85-4.15Q 347.40000000000003-1.5  341.35 0Q 335.3 1.5  326 1.5L 326 1.5Q 316.70000000000005 1.5  310.6 0Q 304.5-1.5  301.05-4.15Q 297.6-6.8  296.25-10.55Q 294.90000000000003-14.3  294.90000000000003-18.9L 294.90000000000003-18.9L 294.90000000000003-53Q 294.90000000000003-57.6  296.25-61.35Q 297.6-65.1  301.05-67.8Q 304.5-70.5  310.6-72Q 316.70000000000005-73.5  326-73.5L 326-73.5Q 335.3-73.5  341.35-72Q 347.40000000000003-70.5  350.85-67.8Q 354.3-65.1  355.65000000000003-61.35Q 357-57.6  357-53L 357-53ZM 317.6-49.4L 317.6-22.5Q 317.6-20.5  319.1-19.15Q 320.6-17.8  326-17.8L 326-17.8Q 331.40000000000003-17.8  332.90000000000003-19.15Q 334.40000000000003-20.5  334.40000000000003-22.5L 334.40000000000003-22.5L 334.40000000000003-49.4Q 334.40000000000003-51.3  332.90000000000003-52.65Q 331.40000000000003-54  326-54L 326-54Q 320.6-54  319.1-52.65Q 317.6-51.3  317.6-49.4L 317.6-49.4ZM 403.2 0L 403.2 0L 387 0Q 385.1 0  384.25-0.85Q 383.40000000000003-1.7  383.40000000000003-3.6L 383.40000000000003-3.6L 383.40000000000003-52.7L 368.7-52.7Q 366.8-52.7  365.95-53.55Q 365.1-54.4  365.1-56.3L 365.1-56.3L 365.1-68.4Q 365.1-70.3  365.95-71.15Q 366.8-72  368.7-72L 368.7-72L 421.5-72Q 423.40000000000003-72  424.25-71.15Q 425.1-70.3  425.1-68.4L 425.1-68.4L 425.1-56.3Q 425.1-54.4  424.25-53.55Q 423.40000000000003-52.7  421.5-52.7L 421.5-52.7L 406.8-52.7L 406.8-3.6Q 406.8-1.7  405.95-0.85Q 405.1 0  403.2 0ZM 484.8 0L 484.8 0L 438.40000000000003 0Q 436.50000000000006 0  435.65000000000003-0.85Q 434.8-1.7  434.8-3.6L 434.8-3.6L 434.8-68.4Q 434.8-70.3  435.65000000000003-71.15Q 436.50000000000006-72  438.40000000000003-72L 438.40000000000003-72L 484.8-72Q 486.70000000000005-72  487.55-71.15Q 488.40000000000003-70.3  488.40000000000003-68.4L 488.40000000000003-68.4L 488.40000000000003-56.7Q 488.40000000000003-54.8  487.55-53.95Q 486.70000000000005-53.1  484.8-53.1L 484.8-53.1L 457.20000000000005-53.1L 457.20000000000005-45.4L 476.70000000000005-45.4Q 478.6-45.4  479.45000000000005-44.55Q 480.3-43.7  480.3-41.8L 480.3-41.8L 480.3-31.1Q 480.3-29.2  479.45000000000005-28.35Q 478.6-27.5  476.70000000000005-27.5L 476.70000000000005-27.5L 457.20000000000005-27.5L 457.20000000000005-18.9L 484.8-18.9Q 486.70000000000005-18.9  487.55-18.05Q 488.40000000000003-17.2  488.40000000000003-15.3L 488.40000000000003-15.3L 488.40000000000003-3.6Q 488.40000000000003-1.7  487.55-0.85Q 486.70000000000005 0  484.8 0ZM 547.6 0L 547.6 0L 523.2 0Q 510.70000000000005 0  504.6500000000001-5Q 498.6000000000001-10  498.6000000000001-20.4L 498.6000000000001-20.4L 498.6000000000001-51.5Q 498.6000000000001-61.9  504.6500000000001-66.95Q 510.70000000000005-72  523.2-72L 523.2-72L 547.6-72Q 549.5000000000001-72  550.35-71.15Q 551.2-70.3  551.2-68.4L 551.2-68.4L 551.2-56.3Q 551.2-54.4  550.35-53.55Q 549.5000000000001-52.7  547.6-52.7L 547.6-52.7L 527.5000000000001-52.7Q 524.4000000000001-52.7  522.9000000000001-51.45Q 521.4000000000001-50.2  521.4000000000001-47.7L 521.4000000000001-47.7L 521.4000000000001-23.9Q 521.4000000000001-21.4  522.9000000000001-20.25Q 524.4000000000001-19.1  527.5000000000001-19.1L 527.5000000000001-19.1L 547.6-19.1Q 549.5000000000001-19.1  550.35-18.25Q 551.2-17.4  551.2-15.5L 551.2-15.5L 551.2-3.6Q 551.2-1.7  550.35-0.85Q 549.5000000000001 0  547.6 0ZM 588.6-51L 588.6-51L 583.9-35.8L 599.6-35.8L 594.9-51Q 594.5-51.9  594.0500000000001-52.3Q 593.6-52.7  593-52.7L 593-52.7L 590.5-52.7Q 589.9-52.7  589.45-52.3Q 589-51.9  588.6-51ZM 582.9-17.6L 582.9-3.6Q 582.9-1.7  582.0500000000001-0.85Q 581.2 0  579.3000000000001 0L 579.3000000000001 0L 564.6 0Q 562.7 0  561.85-0.85Q 561-1.7  561-3.6L 561-3.6L 561-30Q 561-33  561.95-36.9Q 562.9-40.8  564.9-46L 564.9-46L 573.6-68.7Q 574.2-70.4  575.45-71.2Q 576.7-72  578.7-72L 578.7-72L 605.6-72Q 607.5-72  608.75-71.2Q 610-70.4  610.6-68.7L 610.6-68.7L 619.3000000000001-46Q 621.3000000000001-40.8  622.25-36.9Q 623.2-33  623.2-30L 623.2-30L 623.2-3.6Q 623.2-1.7  622.35-0.85Q 621.5 0  619.6 0L 619.6 0L 604.5 0Q 602.5 0  601.5500000000001-0.85Q 600.6-1.7  600.6-3.6L 600.6-3.6L 600.6-17.6L 582.9-17.6Z"></path></svg>